<mxfile host="Electron" modified="2023-12-04T23:59:02.992Z" agent="Mozilla/5.0 (Windows NT 10.0; Win64; x64) AppleWebKit/537.36 (KHTML, like Gecko) draw.io/22.1.2 Chrome/114.0.5735.289 Electron/25.9.4 Safari/537.36" etag="obVrLI6PSwiEJaLNuSdH" version="22.1.2" type="device">
  <diagram id="C5RBs43oDa-KdzZeNtuy" name="Page-1">
    <mxGraphModel dx="2690" dy="606" grid="1" gridSize="10" guides="1" tooltips="1" connect="1" arrows="1" fold="1" page="1" pageScale="1" pageWidth="827" pageHeight="1169" math="0" shadow="0">
      <root>
        <mxCell id="WIyWlLk6GJQsqaUBKTNV-0" />
        <mxCell id="WIyWlLk6GJQsqaUBKTNV-1" parent="WIyWlLk6GJQsqaUBKTNV-0" />
        <mxCell id="DKrm9r417VlJnwcUg-qO-0" value="start" style="ellipse;whiteSpace=wrap;html=1;" vertex="1" parent="WIyWlLk6GJQsqaUBKTNV-1">
          <mxGeometry x="90" y="40" width="120" height="80" as="geometry" />
        </mxCell>
        <mxCell id="DKrm9r417VlJnwcUg-qO-3" style="edgeStyle=orthogonalEdgeStyle;rounded=0;orthogonalLoop=1;jettySize=auto;html=1;exitX=0.5;exitY=1;exitDx=0;exitDy=0;entryX=0.5;entryY=0;entryDx=0;entryDy=0;" edge="1" parent="WIyWlLk6GJQsqaUBKTNV-1" source="DKrm9r417VlJnwcUg-qO-1" target="DKrm9r417VlJnwcUg-qO-2">
          <mxGeometry relative="1" as="geometry" />
        </mxCell>
        <mxCell id="DKrm9r417VlJnwcUg-qO-1" value="struct Student&amp;nbsp;" style="rounded=0;whiteSpace=wrap;html=1;" vertex="1" parent="WIyWlLk6GJQsqaUBKTNV-1">
          <mxGeometry x="690" y="50" width="120" height="60" as="geometry" />
        </mxCell>
        <mxCell id="DKrm9r417VlJnwcUg-qO-2" value="char name[50]&lt;br&gt;int phoneNumber&lt;br&gt;int old;&lt;br&gt;char email[20]" style="rounded=0;whiteSpace=wrap;html=1;" vertex="1" parent="WIyWlLk6GJQsqaUBKTNV-1">
          <mxGeometry x="690" y="150" width="120" height="60" as="geometry" />
        </mxCell>
        <mxCell id="DKrm9r417VlJnwcUg-qO-6" style="edgeStyle=orthogonalEdgeStyle;rounded=0;orthogonalLoop=1;jettySize=auto;html=1;exitX=0.5;exitY=1;exitDx=0;exitDy=0;entryX=0.5;entryY=0;entryDx=0;entryDy=0;" edge="1" parent="WIyWlLk6GJQsqaUBKTNV-1" source="DKrm9r417VlJnwcUg-qO-4" target="DKrm9r417VlJnwcUg-qO-5">
          <mxGeometry relative="1" as="geometry" />
        </mxCell>
        <mxCell id="DKrm9r417VlJnwcUg-qO-4" value="inputStruct(struct Student *s,int i)" style="rounded=0;whiteSpace=wrap;html=1;" vertex="1" parent="WIyWlLk6GJQsqaUBKTNV-1">
          <mxGeometry x="530" y="50" width="120" height="60" as="geometry" />
        </mxCell>
        <mxCell id="DKrm9r417VlJnwcUg-qO-5" value="nhap thong tin sinh vien" style="shape=parallelogram;perimeter=parallelogramPerimeter;whiteSpace=wrap;html=1;fixedSize=1;" vertex="1" parent="WIyWlLk6GJQsqaUBKTNV-1">
          <mxGeometry x="530" y="160" width="120" height="60" as="geometry" />
        </mxCell>
        <mxCell id="DKrm9r417VlJnwcUg-qO-10" style="edgeStyle=orthogonalEdgeStyle;rounded=0;orthogonalLoop=1;jettySize=auto;html=1;exitX=0.5;exitY=1;exitDx=0;exitDy=0;" edge="1" parent="WIyWlLk6GJQsqaUBKTNV-1" source="DKrm9r417VlJnwcUg-qO-7">
          <mxGeometry relative="1" as="geometry">
            <mxPoint x="590" y="370" as="targetPoint" />
          </mxGeometry>
        </mxCell>
        <mxCell id="DKrm9r417VlJnwcUg-qO-7" value="deleteStudent(struct Student *s, int j, int count)" style="rounded=0;whiteSpace=wrap;html=1;" vertex="1" parent="WIyWlLk6GJQsqaUBKTNV-1">
          <mxGeometry x="530" y="270" width="120" height="60" as="geometry" />
        </mxCell>
        <mxCell id="DKrm9r417VlJnwcUg-qO-13" style="edgeStyle=orthogonalEdgeStyle;rounded=0;orthogonalLoop=1;jettySize=auto;html=1;exitX=0.5;exitY=1;exitDx=0;exitDy=0;entryX=0.5;entryY=0;entryDx=0;entryDy=0;" edge="1" parent="WIyWlLk6GJQsqaUBKTNV-1" source="DKrm9r417VlJnwcUg-qO-11" target="DKrm9r417VlJnwcUg-qO-12">
          <mxGeometry relative="1" as="geometry" />
        </mxCell>
        <mxCell id="DKrm9r417VlJnwcUg-qO-11" value="i = j" style="rounded=0;whiteSpace=wrap;html=1;" vertex="1" parent="WIyWlLk6GJQsqaUBKTNV-1">
          <mxGeometry x="530" y="370" width="120" height="60" as="geometry" />
        </mxCell>
        <mxCell id="DKrm9r417VlJnwcUg-qO-15" style="edgeStyle=orthogonalEdgeStyle;rounded=0;orthogonalLoop=1;jettySize=auto;html=1;exitX=0.5;exitY=1;exitDx=0;exitDy=0;entryX=0.5;entryY=0;entryDx=0;entryDy=0;" edge="1" parent="WIyWlLk6GJQsqaUBKTNV-1" source="DKrm9r417VlJnwcUg-qO-12" target="DKrm9r417VlJnwcUg-qO-14">
          <mxGeometry relative="1" as="geometry" />
        </mxCell>
        <mxCell id="DKrm9r417VlJnwcUg-qO-19" style="edgeStyle=orthogonalEdgeStyle;rounded=0;orthogonalLoop=1;jettySize=auto;html=1;exitX=0;exitY=0.5;exitDx=0;exitDy=0;" edge="1" parent="WIyWlLk6GJQsqaUBKTNV-1" source="DKrm9r417VlJnwcUg-qO-12">
          <mxGeometry relative="1" as="geometry">
            <mxPoint x="470" y="510" as="targetPoint" />
          </mxGeometry>
        </mxCell>
        <mxCell id="DKrm9r417VlJnwcUg-qO-12" value="i&amp;lt;count?" style="rhombus;whiteSpace=wrap;html=1;" vertex="1" parent="WIyWlLk6GJQsqaUBKTNV-1">
          <mxGeometry x="550" y="470" width="80" height="80" as="geometry" />
        </mxCell>
        <mxCell id="DKrm9r417VlJnwcUg-qO-17" style="edgeStyle=orthogonalEdgeStyle;rounded=0;orthogonalLoop=1;jettySize=auto;html=1;exitX=0.5;exitY=1;exitDx=0;exitDy=0;entryX=0.5;entryY=0;entryDx=0;entryDy=0;" edge="1" parent="WIyWlLk6GJQsqaUBKTNV-1" source="DKrm9r417VlJnwcUg-qO-14" target="DKrm9r417VlJnwcUg-qO-16">
          <mxGeometry relative="1" as="geometry" />
        </mxCell>
        <mxCell id="DKrm9r417VlJnwcUg-qO-14" value="*(a+i) = *(a+i+1)" style="rounded=0;whiteSpace=wrap;html=1;" vertex="1" parent="WIyWlLk6GJQsqaUBKTNV-1">
          <mxGeometry x="530" y="570" width="120" height="60" as="geometry" />
        </mxCell>
        <mxCell id="DKrm9r417VlJnwcUg-qO-18" style="edgeStyle=orthogonalEdgeStyle;rounded=0;orthogonalLoop=1;jettySize=auto;html=1;exitX=1;exitY=0.5;exitDx=0;exitDy=0;entryX=1;entryY=0.5;entryDx=0;entryDy=0;" edge="1" parent="WIyWlLk6GJQsqaUBKTNV-1" source="DKrm9r417VlJnwcUg-qO-16" target="DKrm9r417VlJnwcUg-qO-12">
          <mxGeometry relative="1" as="geometry" />
        </mxCell>
        <mxCell id="DKrm9r417VlJnwcUg-qO-16" value="i++" style="rounded=0;whiteSpace=wrap;html=1;" vertex="1" parent="WIyWlLk6GJQsqaUBKTNV-1">
          <mxGeometry x="530" y="660" width="120" height="60" as="geometry" />
        </mxCell>
        <mxCell id="DKrm9r417VlJnwcUg-qO-23" style="edgeStyle=orthogonalEdgeStyle;rounded=0;orthogonalLoop=1;jettySize=auto;html=1;exitX=0.5;exitY=1;exitDx=0;exitDy=0;entryX=0.5;entryY=0;entryDx=0;entryDy=0;" edge="1" parent="WIyWlLk6GJQsqaUBKTNV-1" source="DKrm9r417VlJnwcUg-qO-20" target="DKrm9r417VlJnwcUg-qO-22">
          <mxGeometry relative="1" as="geometry" />
        </mxCell>
        <mxCell id="DKrm9r417VlJnwcUg-qO-20" value="struct Student student[50]" style="rounded=0;whiteSpace=wrap;html=1;" vertex="1" parent="WIyWlLk6GJQsqaUBKTNV-1">
          <mxGeometry x="80" y="160" width="120" height="60" as="geometry" />
        </mxCell>
        <mxCell id="DKrm9r417VlJnwcUg-qO-21" style="edgeStyle=orthogonalEdgeStyle;rounded=0;orthogonalLoop=1;jettySize=auto;html=1;exitX=0.5;exitY=1;exitDx=0;exitDy=0;entryX=0.587;entryY=-0.07;entryDx=0;entryDy=0;entryPerimeter=0;" edge="1" parent="WIyWlLk6GJQsqaUBKTNV-1" source="DKrm9r417VlJnwcUg-qO-0" target="DKrm9r417VlJnwcUg-qO-20">
          <mxGeometry relative="1" as="geometry" />
        </mxCell>
        <mxCell id="DKrm9r417VlJnwcUg-qO-25" style="edgeStyle=orthogonalEdgeStyle;rounded=0;orthogonalLoop=1;jettySize=auto;html=1;exitX=0.5;exitY=1;exitDx=0;exitDy=0;entryX=0.5;entryY=0;entryDx=0;entryDy=0;" edge="1" parent="WIyWlLk6GJQsqaUBKTNV-1" source="DKrm9r417VlJnwcUg-qO-22" target="DKrm9r417VlJnwcUg-qO-24">
          <mxGeometry relative="1" as="geometry" />
        </mxCell>
        <mxCell id="DKrm9r417VlJnwcUg-qO-22" value="int n&lt;br&gt;int currentIndex&lt;br&gt;int updateIndex&lt;br&gt;int index" style="rounded=0;whiteSpace=wrap;html=1;" vertex="1" parent="WIyWlLk6GJQsqaUBKTNV-1">
          <mxGeometry x="80" y="250" width="120" height="60" as="geometry" />
        </mxCell>
        <mxCell id="DKrm9r417VlJnwcUg-qO-24" value="choice" style="shape=parallelogram;perimeter=parallelogramPerimeter;whiteSpace=wrap;html=1;fixedSize=1;" vertex="1" parent="WIyWlLk6GJQsqaUBKTNV-1">
          <mxGeometry x="80" y="360" width="120" height="60" as="geometry" />
        </mxCell>
        <mxCell id="DKrm9r417VlJnwcUg-qO-29" style="edgeStyle=orthogonalEdgeStyle;rounded=0;orthogonalLoop=1;jettySize=auto;html=1;exitX=0.5;exitY=1;exitDx=0;exitDy=0;entryX=0.5;entryY=0;entryDx=0;entryDy=0;" edge="1" parent="WIyWlLk6GJQsqaUBKTNV-1" source="DKrm9r417VlJnwcUg-qO-26" target="DKrm9r417VlJnwcUg-qO-28">
          <mxGeometry relative="1" as="geometry" />
        </mxCell>
        <mxCell id="DKrm9r417VlJnwcUg-qO-41" style="edgeStyle=orthogonalEdgeStyle;rounded=0;orthogonalLoop=1;jettySize=auto;html=1;exitX=0;exitY=0.5;exitDx=0;exitDy=0;" edge="1" parent="WIyWlLk6GJQsqaUBKTNV-1" source="DKrm9r417VlJnwcUg-qO-26">
          <mxGeometry relative="1" as="geometry">
            <mxPoint x="-360" y="510" as="targetPoint" />
          </mxGeometry>
        </mxCell>
        <mxCell id="DKrm9r417VlJnwcUg-qO-26" value="choice ==1?" style="rhombus;whiteSpace=wrap;html=1;" vertex="1" parent="WIyWlLk6GJQsqaUBKTNV-1">
          <mxGeometry x="100" y="470" width="80" height="80" as="geometry" />
        </mxCell>
        <mxCell id="DKrm9r417VlJnwcUg-qO-27" style="edgeStyle=orthogonalEdgeStyle;rounded=0;orthogonalLoop=1;jettySize=auto;html=1;exitX=0.5;exitY=1;exitDx=0;exitDy=0;entryX=0.5;entryY=-0.077;entryDx=0;entryDy=0;entryPerimeter=0;" edge="1" parent="WIyWlLk6GJQsqaUBKTNV-1" source="DKrm9r417VlJnwcUg-qO-24" target="DKrm9r417VlJnwcUg-qO-26">
          <mxGeometry relative="1" as="geometry" />
        </mxCell>
        <mxCell id="DKrm9r417VlJnwcUg-qO-31" style="edgeStyle=orthogonalEdgeStyle;rounded=0;orthogonalLoop=1;jettySize=auto;html=1;exitX=0.5;exitY=1;exitDx=0;exitDy=0;entryX=0.5;entryY=0;entryDx=0;entryDy=0;" edge="1" parent="WIyWlLk6GJQsqaUBKTNV-1" source="DKrm9r417VlJnwcUg-qO-28" target="DKrm9r417VlJnwcUg-qO-30">
          <mxGeometry relative="1" as="geometry" />
        </mxCell>
        <mxCell id="DKrm9r417VlJnwcUg-qO-28" value="n" style="shape=parallelogram;perimeter=parallelogramPerimeter;whiteSpace=wrap;html=1;fixedSize=1;" vertex="1" parent="WIyWlLk6GJQsqaUBKTNV-1">
          <mxGeometry x="80" y="585" width="120" height="60" as="geometry" />
        </mxCell>
        <mxCell id="DKrm9r417VlJnwcUg-qO-33" style="edgeStyle=orthogonalEdgeStyle;rounded=0;orthogonalLoop=1;jettySize=auto;html=1;exitX=0.5;exitY=1;exitDx=0;exitDy=0;entryX=0.5;entryY=0;entryDx=0;entryDy=0;" edge="1" parent="WIyWlLk6GJQsqaUBKTNV-1" source="DKrm9r417VlJnwcUg-qO-30" target="DKrm9r417VlJnwcUg-qO-32">
          <mxGeometry relative="1" as="geometry" />
        </mxCell>
        <mxCell id="DKrm9r417VlJnwcUg-qO-35" style="edgeStyle=orthogonalEdgeStyle;rounded=0;orthogonalLoop=1;jettySize=auto;html=1;exitX=0;exitY=0.5;exitDx=0;exitDy=0;" edge="1" parent="WIyWlLk6GJQsqaUBKTNV-1" source="DKrm9r417VlJnwcUg-qO-30">
          <mxGeometry relative="1" as="geometry">
            <mxPoint x="-40" y="710" as="targetPoint" />
          </mxGeometry>
        </mxCell>
        <mxCell id="DKrm9r417VlJnwcUg-qO-30" value="i&amp;lt;n?" style="rhombus;whiteSpace=wrap;html=1;" vertex="1" parent="WIyWlLk6GJQsqaUBKTNV-1">
          <mxGeometry x="100" y="670" width="80" height="80" as="geometry" />
        </mxCell>
        <mxCell id="DKrm9r417VlJnwcUg-qO-34" style="edgeStyle=orthogonalEdgeStyle;rounded=0;orthogonalLoop=1;jettySize=auto;html=1;exitX=1;exitY=0.5;exitDx=0;exitDy=0;entryX=1;entryY=0.5;entryDx=0;entryDy=0;" edge="1" parent="WIyWlLk6GJQsqaUBKTNV-1" source="DKrm9r417VlJnwcUg-qO-32" target="DKrm9r417VlJnwcUg-qO-30">
          <mxGeometry relative="1" as="geometry" />
        </mxCell>
        <mxCell id="DKrm9r417VlJnwcUg-qO-32" value="inputStruct(student, currentIndex)&lt;br&gt;curentIndex++;" style="rounded=0;whiteSpace=wrap;html=1;" vertex="1" parent="WIyWlLk6GJQsqaUBKTNV-1">
          <mxGeometry x="80" y="790" width="120" height="60" as="geometry" />
        </mxCell>
        <mxCell id="DKrm9r417VlJnwcUg-qO-38" style="edgeStyle=orthogonalEdgeStyle;rounded=0;orthogonalLoop=1;jettySize=auto;html=1;exitX=0.5;exitY=1;exitDx=0;exitDy=0;entryX=0.5;entryY=0;entryDx=0;entryDy=0;" edge="1" parent="WIyWlLk6GJQsqaUBKTNV-1" source="DKrm9r417VlJnwcUg-qO-36" target="DKrm9r417VlJnwcUg-qO-37">
          <mxGeometry relative="1" as="geometry" />
        </mxCell>
        <mxCell id="DKrm9r417VlJnwcUg-qO-36" value="i&amp;lt;cunrrentIndex?" style="rhombus;whiteSpace=wrap;html=1;" vertex="1" parent="WIyWlLk6GJQsqaUBKTNV-1">
          <mxGeometry x="-120" y="670" width="80" height="80" as="geometry" />
        </mxCell>
        <mxCell id="DKrm9r417VlJnwcUg-qO-39" style="edgeStyle=orthogonalEdgeStyle;rounded=0;orthogonalLoop=1;jettySize=auto;html=1;exitX=1;exitY=0.5;exitDx=0;exitDy=0;" edge="1" parent="WIyWlLk6GJQsqaUBKTNV-1" source="DKrm9r417VlJnwcUg-qO-37">
          <mxGeometry relative="1" as="geometry">
            <mxPoint x="10" y="710" as="targetPoint" />
          </mxGeometry>
        </mxCell>
        <mxCell id="DKrm9r417VlJnwcUg-qO-37" value="outputStudent(student,i)" style="rounded=0;whiteSpace=wrap;html=1;" vertex="1" parent="WIyWlLk6GJQsqaUBKTNV-1">
          <mxGeometry x="-140" y="790" width="120" height="60" as="geometry" />
        </mxCell>
        <mxCell id="DKrm9r417VlJnwcUg-qO-44" style="edgeStyle=orthogonalEdgeStyle;rounded=0;orthogonalLoop=1;jettySize=auto;html=1;exitX=0.5;exitY=1;exitDx=0;exitDy=0;entryX=0.5;entryY=0;entryDx=0;entryDy=0;" edge="1" parent="WIyWlLk6GJQsqaUBKTNV-1" source="DKrm9r417VlJnwcUg-qO-42" target="DKrm9r417VlJnwcUg-qO-43">
          <mxGeometry relative="1" as="geometry" />
        </mxCell>
        <mxCell id="DKrm9r417VlJnwcUg-qO-51" style="edgeStyle=orthogonalEdgeStyle;rounded=0;orthogonalLoop=1;jettySize=auto;html=1;exitX=0;exitY=0.5;exitDx=0;exitDy=0;" edge="1" parent="WIyWlLk6GJQsqaUBKTNV-1" source="DKrm9r417VlJnwcUg-qO-42">
          <mxGeometry relative="1" as="geometry">
            <mxPoint x="-870" y="510" as="targetPoint" />
          </mxGeometry>
        </mxCell>
        <mxCell id="DKrm9r417VlJnwcUg-qO-42" value="choice == 2?" style="rhombus;whiteSpace=wrap;html=1;" vertex="1" parent="WIyWlLk6GJQsqaUBKTNV-1">
          <mxGeometry x="-440" y="470" width="80" height="80" as="geometry" />
        </mxCell>
        <mxCell id="DKrm9r417VlJnwcUg-qO-46" style="edgeStyle=orthogonalEdgeStyle;rounded=0;orthogonalLoop=1;jettySize=auto;html=1;exitX=0.5;exitY=1;exitDx=0;exitDy=0;entryX=0.5;entryY=0;entryDx=0;entryDy=0;" edge="1" parent="WIyWlLk6GJQsqaUBKTNV-1" source="DKrm9r417VlJnwcUg-qO-43" target="DKrm9r417VlJnwcUg-qO-45">
          <mxGeometry relative="1" as="geometry" />
        </mxCell>
        <mxCell id="DKrm9r417VlJnwcUg-qO-43" value="updateIndex" style="shape=parallelogram;perimeter=parallelogramPerimeter;whiteSpace=wrap;html=1;fixedSize=1;" vertex="1" parent="WIyWlLk6GJQsqaUBKTNV-1">
          <mxGeometry x="-460" y="585" width="120" height="60" as="geometry" />
        </mxCell>
        <mxCell id="DKrm9r417VlJnwcUg-qO-47" style="edgeStyle=orthogonalEdgeStyle;rounded=0;orthogonalLoop=1;jettySize=auto;html=1;exitX=0.5;exitY=1;exitDx=0;exitDy=0;" edge="1" parent="WIyWlLk6GJQsqaUBKTNV-1" source="DKrm9r417VlJnwcUg-qO-45">
          <mxGeometry relative="1" as="geometry">
            <mxPoint x="-400" y="790" as="targetPoint" />
          </mxGeometry>
        </mxCell>
        <mxCell id="DKrm9r417VlJnwcUg-qO-49" style="edgeStyle=orthogonalEdgeStyle;rounded=0;orthogonalLoop=1;jettySize=auto;html=1;exitX=0;exitY=0.5;exitDx=0;exitDy=0;" edge="1" parent="WIyWlLk6GJQsqaUBKTNV-1" source="DKrm9r417VlJnwcUg-qO-45">
          <mxGeometry relative="1" as="geometry">
            <mxPoint x="-580" y="710" as="targetPoint" />
          </mxGeometry>
        </mxCell>
        <mxCell id="DKrm9r417VlJnwcUg-qO-45" value="0&amp;lt;=updateIndex&amp;lt;currentIndex?&amp;nbsp;" style="rhombus;whiteSpace=wrap;html=1;" vertex="1" parent="WIyWlLk6GJQsqaUBKTNV-1">
          <mxGeometry x="-440" y="670" width="80" height="80" as="geometry" />
        </mxCell>
        <mxCell id="DKrm9r417VlJnwcUg-qO-48" value="outputStruct(student,updateIndex)" style="rounded=0;whiteSpace=wrap;html=1;" vertex="1" parent="WIyWlLk6GJQsqaUBKTNV-1">
          <mxGeometry x="-460" y="790" width="120" height="60" as="geometry" />
        </mxCell>
        <mxCell id="DKrm9r417VlJnwcUg-qO-50" value="ko hop le" style="shape=parallelogram;perimeter=parallelogramPerimeter;whiteSpace=wrap;html=1;fixedSize=1;" vertex="1" parent="WIyWlLk6GJQsqaUBKTNV-1">
          <mxGeometry x="-690" y="680" width="120" height="60" as="geometry" />
        </mxCell>
        <mxCell id="DKrm9r417VlJnwcUg-qO-54" style="edgeStyle=orthogonalEdgeStyle;rounded=0;orthogonalLoop=1;jettySize=auto;html=1;exitX=0.5;exitY=1;exitDx=0;exitDy=0;entryX=0.5;entryY=0;entryDx=0;entryDy=0;" edge="1" parent="WIyWlLk6GJQsqaUBKTNV-1" source="DKrm9r417VlJnwcUg-qO-52" target="DKrm9r417VlJnwcUg-qO-53">
          <mxGeometry relative="1" as="geometry" />
        </mxCell>
        <mxCell id="DKrm9r417VlJnwcUg-qO-64" style="edgeStyle=orthogonalEdgeStyle;rounded=0;orthogonalLoop=1;jettySize=auto;html=1;exitX=0;exitY=0.5;exitDx=0;exitDy=0;" edge="1" parent="WIyWlLk6GJQsqaUBKTNV-1" source="DKrm9r417VlJnwcUg-qO-52">
          <mxGeometry relative="1" as="geometry">
            <mxPoint x="-1350" y="510" as="targetPoint" />
          </mxGeometry>
        </mxCell>
        <mxCell id="DKrm9r417VlJnwcUg-qO-52" value="choice == 3?" style="rhombus;whiteSpace=wrap;html=1;" vertex="1" parent="WIyWlLk6GJQsqaUBKTNV-1">
          <mxGeometry x="-950" y="470" width="80" height="80" as="geometry" />
        </mxCell>
        <mxCell id="DKrm9r417VlJnwcUg-qO-56" style="edgeStyle=orthogonalEdgeStyle;rounded=0;orthogonalLoop=1;jettySize=auto;html=1;exitX=0.5;exitY=1;exitDx=0;exitDy=0;entryX=0.5;entryY=0;entryDx=0;entryDy=0;" edge="1" parent="WIyWlLk6GJQsqaUBKTNV-1" source="DKrm9r417VlJnwcUg-qO-53" target="DKrm9r417VlJnwcUg-qO-55">
          <mxGeometry relative="1" as="geometry" />
        </mxCell>
        <mxCell id="DKrm9r417VlJnwcUg-qO-53" value="indeex" style="shape=parallelogram;perimeter=parallelogramPerimeter;whiteSpace=wrap;html=1;fixedSize=1;" vertex="1" parent="WIyWlLk6GJQsqaUBKTNV-1">
          <mxGeometry x="-970" y="590" width="120" height="60" as="geometry" />
        </mxCell>
        <mxCell id="DKrm9r417VlJnwcUg-qO-58" style="edgeStyle=orthogonalEdgeStyle;rounded=0;orthogonalLoop=1;jettySize=auto;html=1;exitX=0.5;exitY=1;exitDx=0;exitDy=0;entryX=0.5;entryY=0;entryDx=0;entryDy=0;" edge="1" parent="WIyWlLk6GJQsqaUBKTNV-1" source="DKrm9r417VlJnwcUg-qO-55" target="DKrm9r417VlJnwcUg-qO-57">
          <mxGeometry relative="1" as="geometry" />
        </mxCell>
        <mxCell id="DKrm9r417VlJnwcUg-qO-61" style="edgeStyle=orthogonalEdgeStyle;rounded=0;orthogonalLoop=1;jettySize=auto;html=1;exitX=0;exitY=0.5;exitDx=0;exitDy=0;" edge="1" parent="WIyWlLk6GJQsqaUBKTNV-1" source="DKrm9r417VlJnwcUg-qO-55">
          <mxGeometry relative="1" as="geometry">
            <mxPoint x="-1108.4000244140625" y="720" as="targetPoint" />
          </mxGeometry>
        </mxCell>
        <mxCell id="DKrm9r417VlJnwcUg-qO-55" value="index&amp;lt;curentIndex?" style="rhombus;whiteSpace=wrap;html=1;" vertex="1" parent="WIyWlLk6GJQsqaUBKTNV-1">
          <mxGeometry x="-950" y="680" width="80" height="80" as="geometry" />
        </mxCell>
        <mxCell id="DKrm9r417VlJnwcUg-qO-60" style="edgeStyle=orthogonalEdgeStyle;rounded=0;orthogonalLoop=1;jettySize=auto;html=1;exitX=0.5;exitY=1;exitDx=0;exitDy=0;" edge="1" parent="WIyWlLk6GJQsqaUBKTNV-1" source="DKrm9r417VlJnwcUg-qO-57" target="DKrm9r417VlJnwcUg-qO-59">
          <mxGeometry relative="1" as="geometry" />
        </mxCell>
        <mxCell id="DKrm9r417VlJnwcUg-qO-57" value="deleteStudent(student,index,currentIndex)" style="rounded=0;whiteSpace=wrap;html=1;" vertex="1" parent="WIyWlLk6GJQsqaUBKTNV-1">
          <mxGeometry x="-970" y="790" width="120" height="60" as="geometry" />
        </mxCell>
        <mxCell id="DKrm9r417VlJnwcUg-qO-59" value="currentIndex--;" style="rounded=0;whiteSpace=wrap;html=1;" vertex="1" parent="WIyWlLk6GJQsqaUBKTNV-1">
          <mxGeometry x="-970" y="890" width="120" height="60" as="geometry" />
        </mxCell>
        <mxCell id="DKrm9r417VlJnwcUg-qO-63" value="ko hop le" style="shape=parallelogram;perimeter=parallelogramPerimeter;whiteSpace=wrap;html=1;fixedSize=1;" vertex="1" parent="WIyWlLk6GJQsqaUBKTNV-1">
          <mxGeometry x="-1220" y="690" width="120" height="60" as="geometry" />
        </mxCell>
        <mxCell id="DKrm9r417VlJnwcUg-qO-67" style="edgeStyle=orthogonalEdgeStyle;rounded=0;orthogonalLoop=1;jettySize=auto;html=1;exitX=0.5;exitY=1;exitDx=0;exitDy=0;entryX=0.5;entryY=0;entryDx=0;entryDy=0;" edge="1" parent="WIyWlLk6GJQsqaUBKTNV-1" source="DKrm9r417VlJnwcUg-qO-65" target="DKrm9r417VlJnwcUg-qO-66">
          <mxGeometry relative="1" as="geometry" />
        </mxCell>
        <mxCell id="DKrm9r417VlJnwcUg-qO-65" value="choice == 4?" style="rhombus;whiteSpace=wrap;html=1;" vertex="1" parent="WIyWlLk6GJQsqaUBKTNV-1">
          <mxGeometry x="-1430" y="470" width="80" height="80" as="geometry" />
        </mxCell>
        <mxCell id="DKrm9r417VlJnwcUg-qO-69" style="edgeStyle=orthogonalEdgeStyle;rounded=0;orthogonalLoop=1;jettySize=auto;html=1;exitX=0.5;exitY=1;exitDx=0;exitDy=0;entryX=0.5;entryY=0;entryDx=0;entryDy=0;" edge="1" parent="WIyWlLk6GJQsqaUBKTNV-1" source="DKrm9r417VlJnwcUg-qO-66" target="DKrm9r417VlJnwcUg-qO-68">
          <mxGeometry relative="1" as="geometry" />
        </mxCell>
        <mxCell id="DKrm9r417VlJnwcUg-qO-66" value="i&amp;lt;currentIndex?" style="rhombus;whiteSpace=wrap;html=1;" vertex="1" parent="WIyWlLk6GJQsqaUBKTNV-1">
          <mxGeometry x="-1430" y="580" width="80" height="80" as="geometry" />
        </mxCell>
        <mxCell id="DKrm9r417VlJnwcUg-qO-71" style="edgeStyle=orthogonalEdgeStyle;rounded=0;orthogonalLoop=1;jettySize=auto;html=1;exitX=0.5;exitY=1;exitDx=0;exitDy=0;entryX=0;entryY=0.5;entryDx=0;entryDy=0;" edge="1" parent="WIyWlLk6GJQsqaUBKTNV-1" source="DKrm9r417VlJnwcUg-qO-68" target="DKrm9r417VlJnwcUg-qO-66">
          <mxGeometry relative="1" as="geometry" />
        </mxCell>
        <mxCell id="DKrm9r417VlJnwcUg-qO-68" value="outputStruct(student, i)" style="rounded=0;whiteSpace=wrap;html=1;" vertex="1" parent="WIyWlLk6GJQsqaUBKTNV-1">
          <mxGeometry x="-1450" y="690" width="120" height="60" as="geometry" />
        </mxCell>
      </root>
    </mxGraphModel>
  </diagram>
</mxfile>
